<svg width="2544" height="706" viewBox="0 0 2544 706" fill="none" xmlns="http://www.w3.org/2000/svg">
<path d="M902.2 444H849.4V188.4H902.2V444ZM1055 444H1002.4V188.4H1055V444ZM879.6 291H1022.4V334.8H879.6V291ZM1186.85 448.8C1153.25 448.8 1128.25 441.067 1111.85 425.6C1095.45 410.133 1087.25 387.733 1087.25 358.4V332.8C1087.25 303.733 1094.92 281.4 1110.25 265.8C1125.58 250.2 1147.85 242.4 1177.05 242.4C1196.78 242.4 1213.25 245.867 1226.45 252.8C1239.65 259.733 1249.52 269.6 1256.05 282.4C1262.72 295.067 1266.05 310.267 1266.05 328V335C1266.05 339.8 1265.78 344.733 1265.25 349.8C1264.85 354.733 1264.25 359.4 1263.45 363.8H1217.05C1217.45 356.467 1217.65 349.533 1217.65 343C1217.78 336.333 1217.85 330.333 1217.85 325C1217.85 315.8 1216.38 308 1213.45 301.6C1210.52 295.067 1206.05 290.133 1200.05 286.8C1194.05 283.467 1186.38 281.8 1177.05 281.8C1163.32 281.8 1153.18 285.6 1146.65 293.2C1140.12 300.8 1136.85 311.6 1136.85 325.6V343.8L1137.05 349.6V365C1137.05 371.133 1137.98 376.8 1139.85 382C1141.85 387.2 1145.12 391.733 1149.65 395.6C1154.18 399.333 1160.18 402.267 1167.65 404.4C1175.25 406.533 1184.72 407.6 1196.05 407.6C1208.32 407.6 1219.98 406.267 1231.05 403.6C1242.25 400.8 1252.85 397.067 1262.85 392.4L1258.45 432.8C1249.52 437.733 1238.98 441.6 1226.85 444.4C1214.85 447.333 1201.52 448.8 1186.85 448.8ZM1114.45 363.8V329.8H1253.05V363.8H1114.45ZM1406.5 444L1408.3 396L1406.9 391.6V330.2L1406.7 321.4C1406.7 308.6 1403.17 299.2 1396.1 293.2C1389.17 287.2 1377.77 284.2 1361.9 284.2C1348.43 284.2 1335.77 286 1323.9 289.6C1312.17 293.067 1301.3 297.133 1291.3 301.8L1295.7 261C1301.57 257.933 1308.23 255.067 1315.7 252.4C1323.3 249.6 1331.77 247.333 1341.1 245.6C1350.43 243.867 1360.5 243 1371.3 243C1387.3 243 1400.83 244.933 1411.9 248.8C1422.97 252.533 1431.77 257.933 1438.3 265C1444.97 272.067 1449.77 280.533 1452.7 290.4C1455.63 300.133 1457.1 310.933 1457.1 322.8V444H1406.5ZM1342.3 448.6C1322.83 448.6 1307.97 443.733 1297.7 434C1287.57 424.267 1282.5 410.4 1282.5 392.4V386.8C1282.5 367.733 1288.37 353.667 1300.1 344.6C1311.83 335.4 1330.43 329.067 1355.9 325.6L1411.5 318L1414.5 351L1363.3 358.4C1352.1 359.867 1344.1 362.533 1339.3 366.4C1334.63 370.267 1332.3 375.933 1332.3 383.4V385.4C1332.3 392.733 1334.57 398.467 1339.1 402.6C1343.77 406.6 1351.03 408.6 1360.9 408.6C1369.7 408.6 1377.23 407.2 1383.5 404.4C1389.77 401.6 1394.9 397.933 1398.9 393.4C1403.03 388.733 1405.97 383.533 1407.7 377.8L1414.9 403.2H1406.1C1403.97 411.6 1400.5 419.267 1395.7 426.2C1391.03 433 1384.43 438.467 1375.9 442.6C1367.37 446.6 1356.17 448.6 1342.3 448.6ZM1491.55 444V179.6H1542.95V444H1491.55ZM1635.32 444L1710.72 188.4H1790.52L1865.72 444H1812.72L1753.12 223H1748.32L1688.32 444H1635.32ZM1692.52 378.8V337H1808.12V378.8H1692.52ZM1901.77 444L1859.37 247.8H1911.77L1940.57 407.6H1944.17L1973.37 252.8H2039.37L2068.77 407.6H2072.17L2101.37 247.8H2153.17L2110.77 444H2036.37L2012.37 314.2L2007.97 290H2004.97L2000.57 314.2L1976.37 444H1901.77ZM2282.91 444L2284.71 396L2283.31 391.6V330.2L2283.11 321.4C2283.11 308.6 2279.57 299.2 2272.51 293.2C2265.57 287.2 2254.17 284.2 2238.31 284.2C2224.84 284.2 2212.17 286 2200.31 289.6C2188.57 293.067 2177.71 297.133 2167.71 301.8L2172.11 261C2177.97 257.933 2184.64 255.067 2192.11 252.4C2199.71 249.6 2208.17 247.333 2217.51 245.6C2226.84 243.867 2236.91 243 2247.71 243C2263.71 243 2277.24 244.933 2288.31 248.8C2299.37 252.533 2308.17 257.933 2314.71 265C2321.37 272.067 2326.17 280.533 2329.11 290.4C2332.04 300.133 2333.51 310.933 2333.51 322.8V444H2282.91ZM2218.71 448.6C2199.24 448.6 2184.37 443.733 2174.11 434C2163.97 424.267 2158.91 410.4 2158.91 392.4V386.8C2158.91 367.733 2164.77 353.667 2176.51 344.6C2188.24 335.4 2206.84 329.067 2232.31 325.6L2287.91 318L2290.91 351L2239.71 358.4C2228.51 359.867 2220.51 362.533 2215.71 366.4C2211.04 370.267 2208.71 375.933 2208.71 383.4V385.4C2208.71 392.733 2210.97 398.467 2215.51 402.6C2220.17 406.6 2227.44 408.6 2237.31 408.6C2246.11 408.6 2253.64 407.2 2259.91 404.4C2266.17 401.6 2271.31 397.933 2275.31 393.4C2279.44 388.733 2282.37 383.533 2284.11 377.8L2291.31 403.2H2282.51C2280.37 411.6 2276.91 419.267 2272.11 426.2C2267.44 433 2260.84 438.467 2252.31 442.6C2243.77 446.6 2232.57 448.6 2218.71 448.6ZM2463.74 401.6L2436.34 413.4L2485.34 247.8H2537.94L2453.74 512.8H2402.34L2433.14 416.4L2456.94 435.6H2399.74L2342.74 247.8H2395.74L2436.34 401.6H2463.74Z" fill="url(#paint0_linear_14_76)"/>
<path d="M223.517 0.00683594C261.496 0.822532 298.612 11.496 331.223 30.9805C350.015 42.2086 367.098 55.9046 381.833 72.0186C396.568 55.9046 413.651 42.2086 432.443 30.9805C465.054 11.496 502.17 0.822531 540.149 0.00683594L540.491 0H540.833C667.18 0 763.666 112.52 763.666 244.166C763.666 305.786 738.356 364.951 703.715 417.44C668.92 470.164 623.106 518.587 578.252 559.383C533.271 600.294 488.432 634.273 454.908 657.995C438.118 669.876 424.095 679.235 414.22 685.653C409.28 688.864 405.373 691.341 402.671 693.035C401.32 693.882 400.269 694.534 399.541 694.982C399.177 695.207 398.894 695.38 398.693 695.503C398.593 695.564 398.513 695.613 398.455 695.648C398.426 695.666 398.402 695.681 398.384 695.692C398.375 695.698 398.365 695.703 398.36 695.706C398.356 695.709 398.352 695.712 396.285 692.312L381.833 668.5L398.345 695.716L381.833 705.733L365.321 695.716L381.833 668.5L367.381 692.312C365.314 695.712 365.31 695.709 365.306 695.706C365.301 695.703 365.291 695.698 365.282 695.692C365.264 695.681 365.24 695.666 365.211 695.648C365.153 695.613 365.073 695.564 364.973 695.503C364.772 695.38 364.489 695.207 364.125 694.982C363.397 694.534 362.346 693.882 360.995 693.035C358.293 691.341 354.386 688.864 349.446 685.653C339.571 679.235 325.548 669.876 308.758 657.995C275.234 634.273 230.395 600.294 185.414 559.383C140.56 518.587 94.7465 470.164 59.9512 417.44C25.3103 364.951 0 305.786 0 244.166C0.000156602 112.52 96.4863 0 222.833 0H223.175L223.517 0.00683594ZM541.155 63.668C514.335 64.3063 488.133 71.8723 465.099 85.6348C456.238 90.9286 448.029 96.8842 440.54 103.481C535.124 129.246 604.666 215.751 604.666 318.499C604.666 441.566 504.9 541.332 381.833 541.332C258.766 541.332 159 441.566 159 318.499C159 215.751 228.541 129.246 323.125 103.481C315.636 96.8844 307.427 90.9284 298.567 85.6348C275.533 71.8721 249.331 64.3062 222.51 63.668C137.659 63.8641 63.6662 141.276 63.666 244.166C63.666 288.546 82.1058 335.423 113.09 382.371C143.92 429.085 185.606 473.496 228.252 512.283C270.771 550.955 313.432 583.309 345.533 606.024C360.269 616.451 372.721 624.804 381.833 630.763C390.945 624.804 403.397 616.451 418.133 606.024C450.234 583.309 492.895 550.955 535.414 512.283C578.06 473.496 619.746 429.085 650.576 382.371C681.56 335.423 700 288.546 700 244.166C700 141.276 626.007 63.8635 541.155 63.668ZM225.851 350.332C236.461 402.605 272.69 445.573 320.86 465.566C317.807 458.976 315.115 452.022 312.742 444.905C304.011 418.712 298.181 386.006 295.981 350.332H225.851ZM467.685 350.332C465.485 386.006 459.655 418.712 450.924 444.905C448.551 452.022 445.858 458.976 442.805 465.566C490.976 445.573 527.205 402.605 537.815 350.332H467.685ZM359.785 350.332C361.878 379.92 366.756 405.615 373.142 424.772C376.102 433.653 379.123 440.323 381.833 445.056C384.543 440.323 387.564 433.653 390.524 424.772C396.91 405.615 401.788 379.92 403.881 350.332H359.785ZM320.479 171.59C272.498 191.652 236.433 234.531 225.851 286.666H295.94C298.108 250.733 303.957 217.783 312.742 191.427C315.016 184.606 317.581 177.935 320.479 171.59ZM381.833 191.275C379.123 196.008 376.102 202.679 373.142 211.56C366.708 230.861 361.804 256.798 359.738 286.666H403.928C401.862 256.798 396.958 230.861 390.524 211.56C387.564 202.679 384.543 196.008 381.833 191.275ZM443.187 171.59C446.084 177.935 448.65 184.606 450.924 191.427C459.709 217.783 465.558 250.733 467.726 286.666H537.815C527.233 234.531 491.167 191.651 443.187 171.59Z" fill="url(#paint1_linear_14_76)"/>
<defs>
<linearGradient id="paint0_linear_14_76" x1="743" y1="471.5" x2="2661" y2="278" gradientUnits="userSpaceOnUse">
<stop stop-color="#12B1A4"/>
<stop offset="0.431252" stop-color="#1E827B"/>
<stop offset="1" stop-color="#0F766E"/>
</linearGradient>
<linearGradient id="paint1_linear_14_76" x1="-34" y1="184" x2="800" y2="496" gradientUnits="userSpaceOnUse">
<stop stop-color="#0F766E"/>
<stop offset="0.346154" stop-color="#1E827B"/>
<stop offset="0.966832" stop-color="#12B1A4"/>
</linearGradient>
</defs>
</svg>
